<?xml version="1.0" encoding="UTF-8"?><svg id="Layer_1" xmlns="http://www.w3.org/2000/svg" viewBox="0 0 730.69 615.03"><path d="m354.44,305.05c-9.21-13.34,3.84-30.69,19.21-25.55l90.2,30.23c40.21,13.46,84.42,7.19,119.3-16.92l78.24-54.04c13.34-9.21,30.69,3.84,25.55,19.21l-30.23,90.2c-13.46,40.21-7.19,84.42,16.92,119.3l54.04,78.24c5.31,7.62,3.44,18.11-4.18,23.42-4.39,3.06-9.97,3.85-15.03,2.13l-90.2-30.23c-40.2-13.46-84.39-7.2-119.27,16.88l-78.27,54.07c-7.62,5.31-18.11,3.44-23.42-4.18-3.06-4.39-3.85-9.97-2.13-15.03l30.23-90.2c13.46-40.2,7.2-84.39-16.88-119.27l-54.07-78.27h0ZM35.98,375.22c-3.18-4.59-2.04-10.89,2.55-14.07,2.63-1.82,5.96-2.29,8.99-1.27l54.11,18.13c24.14,8.06,50.63,4.31,71.58-10.13l46.96-32.44c4.59-3.18,10.89-2.04,14.07,2.55,1.82,2.63,2.29,5.96,1.27,8.99l-18.13,54.11c-8.08,24.12-4.33,50.64,10.13,71.58l32.44,46.96c3.18,4.59,2.04,10.89-2.55,14.07-2.63,1.82-5.96,2.29-8.99,1.27l-54.11-18.13c-24.12-8.08-50.64-4.33-71.58,10.13l-46.96,32.44c-4.59,3.18-10.89,2.04-14.07-2.55-1.82-2.63-2.29-5.96-1.27-8.99l18.13-54.11c8.08-24.12,4.33-50.64-10.13-71.58l-32.44-46.96h0ZM222.35,27.65c-2.08-3.1-1.26-7.29,1.83-9.38,1.72-1.16,3.87-1.46,5.84-.83l36.05,12.07c16.11,5.41,33.79,2.9,47.76-6.76l31.28-21.6c3.1-2.08,7.29-1.26,9.38,1.83,1.16,1.72,1.46,3.87.83,5.84l-12.07,36.05c-5.4,16.1-2.89,33.8,6.76,47.76l21.6,31.28c2.08,3.1,1.26,7.29-1.83,9.38-1.72,1.16-3.87,1.46-5.84.83l-36.05-12.07c-16.1-5.4-33.8-2.89-47.76,6.76l-31.26,21.56c-3.1,2.08-7.29,1.26-9.38-1.83-1.16-1.72-1.46-3.87-.83-5.84l12.07-36.05c5.41-16.11,2.9-33.79-6.76-47.76l-21.59-31.22-.04-.03ZM40.13,111.72c-.29-3.34,2.15-6.25,5.44-6.49,1.88-.14,3.73.64,4.99,2.1l22.45,25.93c10.02,11.56,24.72,17.73,39.71,16.69l33.62-2.37c3.29-.24,6.19,2.28,6.47,5.62.16,1.91-.57,3.78-1.99,5.03l-25.19,22.39c-11.23,9.98-17.08,24.83-15.81,40.07l2.87,34.18c.29,3.34-2.15,6.25-5.44,6.49-1.88.14-3.73-.64-4.99-2.1l-22.45-25.93c-10.01-11.56-24.72-17.74-39.71-16.69l-33.62,2.37c-3.29.24-6.19-2.28-6.47-5.62-.16-1.91.57-3.78,1.99-5.03l25.19-22.39c11.23-9.98,17.08-24.83,15.81-40.07l-2.87-34.18h0Z"/></svg>